<svg aria-hidden="true" style="position: absolute; width: 0; height: 0; overflow: hidden;" version="1.1" xmlns="http://www.w3.org/2000/svg" xmlns:xlink="http://www.w3.org/1999/xlink">
<defs>
<symbol id="icon-korrozia" viewBox="0 0 17 17">
<path fill="none" stroke-linejoin="miter" stroke-linecap="butt" stroke-miterlimit="4" stroke-width="1.4167" d="M1.417 13.458h4.25l2.833 1.417 2.833-1.417h4.25"></path>
<path d="M8.5 1.417l2.652 3.785c0.843 1.203 0.676 2.804-0.398 3.826-1.245 1.184-3.263 1.184-4.508 0-1.075-1.022-1.241-2.624-0.398-3.826l2.652-3.785zM8.5 4.078l-1.361 1.943c-0.172 0.241-0.275 0.541-0.275 0.865 0 0.433 0.184 0.824 0.478 1.098l0.001 0.001c0.302 0.282 0.709 0.456 1.157 0.456s0.855-0.173 1.158-0.457l-0.001 0.001c0.551-0.524 0.638-1.346 0.205-1.963l-1.361-1.943z"></path>
</symbol>
<symbol id="icon-techobsluzhivanie" viewBox="0 0 17 17">
<path fill="none" stroke-linejoin="miter" stroke-linecap="butt" stroke-miterlimit="4" stroke-width="1.4167" d="M14.875 13.458c0-3.521-2.854-6.375-6.375-6.375s-6.375 2.854-6.375 6.375v0M14.167 4.074c-1.541-1.215-3.511-1.949-5.652-1.949-0.005 0-0.010 0-0.015 0h0.001c-0.004 0-0.009-0-0.015-0-2.141 0-4.111 0.734-5.672 1.964l0.020-0.015M11.333 13.458c0-1.565-1.269-2.833-2.833-2.833s-2.833 1.269-2.833 2.833v0"></path>
</symbol>
<symbol id="icon-prochee" viewBox="0 0 17 17">
<path d="M5.667 8.5c0 0.782-0.634 1.417-1.417 1.417s-1.417-0.634-1.417-1.417v0c0-0.782 0.634-1.417 1.417-1.417s1.417 0.634 1.417 1.417v0zM9.917 8.5c0 0.782-0.634 1.417-1.417 1.417s-1.417-0.634-1.417-1.417v0c0-0.782 0.634-1.417 1.417-1.417s1.417 0.634 1.417 1.417v0zM14.167 8.5c0 0.782-0.634 1.417-1.417 1.417s-1.417-0.634-1.417-1.417v0c0-0.782 0.634-1.417 1.417-1.417s1.417 0.634 1.417 1.417v0z"></path>
</symbol>
<symbol id="icon-smazka" viewBox="0 0 17 17">
<path d="M8.5 1.417l2.652 3.785c0.843 1.203 0.676 2.804-0.398 3.826-1.245 1.184-3.263 1.184-4.508 0-1.075-1.022-1.241-2.624-0.398-3.826l2.652-3.785zM8.5 4.078l-1.361 1.943c-0.172 0.241-0.275 0.541-0.275 0.865 0 0.433 0.184 0.824 0.478 1.098l0.001 0.001c0.302 0.282 0.709 0.456 1.157 0.456s0.855-0.173 1.158-0.457l-0.001 0.001c0.551-0.524 0.638-1.346 0.205-1.963l-1.361-1.943z"></path>
<path fill="none" stroke-linejoin="miter" stroke-linecap="butt" stroke-miterlimit="4" stroke-width="1.4167" d="M9.917 15.583c0-3.13 2.537-5.667 5.667-5.667v0M7.083 15.583c0-3.13-2.537-5.667-5.667-5.667v0M12.75 15.583c0-1.565 1.269-2.833 2.833-2.833v0M4.25 15.583c0-1.565-1.269-2.833-2.833-2.833v0"></path>
</symbol>
<symbol id="icon-montazh" viewBox="0 0 17 17">
<path fill="none" stroke-linejoin="miter" stroke-linecap="butt" stroke-miterlimit="4" stroke-width="1.4167" d="M3.074 5.367l5.426-3.132 5.426 3.132v6.266l-5.426 3.132-5.426-3.132v-6.266z"></path>
<path fill="none" stroke-linejoin="miter" stroke-linecap="butt" stroke-miterlimit="4" stroke-width="1.4167" d="M11.333 8.5c0 1.565-1.269 2.833-2.833 2.833s-2.833-1.269-2.833-2.833c0-1.565 1.269-2.833 2.833-2.833s2.833 1.269 2.833 2.833z"></path>
</symbol>
<symbol id="icon-pokrutie" viewBox="0 0 17 17">
<path fill="none" stroke-linejoin="miter" stroke-linecap="butt" stroke-miterlimit="4" stroke-width="1.4167" d="M12.042 8.5c0 1.956-1.586 3.542-3.542 3.542s-3.542-1.586-3.542-3.542c0-1.956 1.586-3.542 3.542-3.542s3.542 1.586 3.542 3.542z"></path>
<path fill="none" stroke-linejoin="miter" stroke-linecap="butt" stroke-miterlimit="4" stroke-width="2.8333" d="M15.583 8.5c0-3.912-3.171-7.083-7.083-7.083s-7.083 3.171-7.083 7.083c0 3.912 3.171 7.083 7.083 7.083v0-1.411c-3.132-0-5.671-2.54-5.671-5.672s2.539-5.672 5.672-5.672c3.132 0 5.671 2.539 5.672 5.671v0h1.411z"></path>
<path fill="none" stroke-linejoin="miter" stroke-linecap="butt" stroke-miterlimit="4" stroke-width="2.8333" d="M15.583 8.5c0-3.912-3.171-7.083-7.083-7.083s-7.083 3.171-7.083 7.083c0 3.912 3.171 7.083 7.083 7.083v0-1.417c-3.13 0-5.667-2.537-5.667-5.667s2.537-5.667 5.667-5.667c3.13 0 5.667 2.537 5.667 5.667v0h1.417z"></path>
</symbol>
<symbol id="icon-ochistka" viewBox="0 0 17 17">
<path d="M1.417 13.458h14.167v1.417h-14.167zM1.417 7.083h1.417v1.417h-1.417zM1.417 4.25h1.417v1.417h-1.417zM1.417 9.917h1.417v1.417h-1.417zM4.25 9.917h1.417v1.417h-1.417zM4.25 7.083h1.417v1.417h-1.417zM7.083 9.917h1.417v1.417h-1.417z"></path>
<path d="M12.396 1.417l2.652 3.785c0.843 1.203 0.676 2.804-0.398 3.826-1.245 1.184-3.263 1.184-4.508 0-1.075-1.022-1.241-2.624-0.398-3.826l2.652-3.785zM12.396 4.078l-1.361 1.943c-0.172 0.241-0.275 0.541-0.275 0.865 0 0.433 0.184 0.824 0.478 1.098l0.001 0.001c0.302 0.282 0.709 0.456 1.157 0.456s0.855-0.173 1.158-0.457l-0.001 0.001c0.551-0.524 0.637-1.346 0.205-1.963l-1.361-1.943z"></path>
</symbol>
<symbol id="icon-beverage" viewBox="0 0 17 17">
<path fill="none" stroke-linejoin="miter" stroke-linecap="butt" stroke-miterlimit="4" stroke-width="1.4167" d="M9.917 4.958v2.125l1.417 1.417v6.375h-5.667v-6.375l1.417-1.417v-2.125M9.917 4.958v-2.833h-2.833v2.833M9.917 4.958h-2.833"></path>
</symbol>
<symbol id="icon-bumaga" viewBox="0 0 17 17">
<path fill="none" stroke-linejoin="miter" stroke-linecap="butt" stroke-miterlimit="4" stroke-width="1.4167" d="M2.833 9.917l5.667 2.833 6.021-2.833M4.25 7.083l4.25 2.125 4.25-2.125-4.25-2.125-4.25 2.125z"></path>
</symbol>
<symbol id="icon-chemical" viewBox="0 0 17 17">
<path fill="none" stroke-linejoin="miter" stroke-linecap="butt" stroke-miterlimit="4" stroke-width="1.4167" d="M4.722 9.917l2.361-3.542v-3.542h2.833v3.542l2.361 3.542M4.722 9.917l-1.889 2.833v1.417h11.333v-1.417l-1.889-2.833M4.722 9.917h7.555"></path>
</symbol>
<symbol id="icon-food" viewBox="0 0 17 17">
<path fill="none" stroke-linejoin="miter" stroke-linecap="butt" stroke-miterlimit="4" stroke-width="1.4167" d="M9.917 14.875h-6.375v-8.5l1.417-1.771v-2.479h3.187v2.479l1.771 1.771v4.25M9.917 14.875v-4.25M9.917 14.875h3.542v-4.25h-3.542"></path>
</symbol>
<symbol id="icon-meat" viewBox="0 0 17 17">
<path fill="none" stroke-linejoin="miter" stroke-linecap="butt" stroke-miterlimit="4" stroke-width="1.4167" d="M4.604 6.375l-0.354-2.833s0.647 0.717 1.063 1.062 1.063 0.708 1.063 0.708 1.352-0.369 2.235-0.354c0.799 0.014 2.015 0.354 2.015 0.354s0.647-0.363 1.063-0.708 1.063-1.062 1.063-1.062l-0.354 2.833 1.771 0.708s-0.363 0.717-0.708 1.062-1.063 0.708-1.063 0.708l-1.063 2.125s0.286 1.141 0 1.771c-0.243 0.534-1.063 1.063-1.063 1.063s-0.964 1.063-1.771 1.063-1.771-1.063-1.771-1.063-0.82-0.528-1.063-1.063c-0.286-0.63 0-1.771 0-1.771l-1.063-2.125s-0.717-0.363-1.062-0.708-0.708-1.062-0.708-1.062l1.771-0.708z"></path>
</symbol>
<symbol id="icon-metallurg" viewBox="0 0 17 17">
<path fill="none" stroke-linejoin="miter" stroke-linecap="butt" stroke-miterlimit="4" stroke-width="1.4167" d="M8.5 2.833v11.333M8.5 2.833h4.25M8.5 2.833h-4.25M8.5 14.167h4.25M8.5 14.167h-4.25"></path>
</symbol>
<symbol id="icon-polimer" viewBox="0 0 17 17">
<path fill="none" stroke-linejoin="miter" stroke-linecap="butt" stroke-miterlimit="4" stroke-width="1.4167" d="M7.083 5.313c0 0.978-0.793 1.771-1.771 1.771s-1.771-0.793-1.771-1.771v0c0-0.978 0.793-1.771 1.771-1.771s1.771 0.793 1.771 1.771v0zM13.458 5.313c0 0.978-0.793 1.771-1.771 1.771s-1.771-0.793-1.771-1.771v0c0-0.978 0.793-1.771 1.771-1.771s1.771 0.793 1.771 1.771v0zM13.458 11.688c0 0.978-0.793 1.771-1.771 1.771s-1.771-0.793-1.771-1.771v0c0-0.978 0.793-1.771 1.771-1.771s1.771 0.793 1.771 1.771v0zM7.083 11.688c0 0.978-0.793 1.771-1.771 1.771s-1.771-0.793-1.771-1.771v0c0-0.978 0.793-1.771 1.771-1.771s1.771 0.793 1.771 1.771v0z"></path>
</symbol>
<symbol id="icon-stroimaterial" viewBox="0 0 17 17">
<path fill="none" stroke-linejoin="miter" stroke-linecap="butt" stroke-miterlimit="4" stroke-width="1.4167" d="M2.125 8.5h6.375M2.125 8.5v4.958h6.375M2.125 8.5l5.86-4.958h6.89M8.5 8.5v4.958M8.5 8.5l6.375-4.958M8.5 13.458l6.375-5.313v-4.604"></path>
</symbol>
<symbol id="icon-tree" viewBox="0 0 17 17">
<path fill="none" stroke-linejoin="miter" stroke-linecap="butt" stroke-miterlimit="4" stroke-width="1.4167" d="M14.875 8.5c0 3.521-2.854 6.375-6.375 6.375s-6.375-2.854-6.375-6.375v0c0-3.521 2.854-6.375 6.375-6.375s6.375 2.854 6.375 6.375v0z"></path>
<path fill="#fff" stroke-linejoin="miter" stroke-linecap="butt" stroke-miterlimit="4" stroke-width="1.4167" d="M7.792 2.125h6.021l-11.688 11.688v-6.021c0-3.13 2.537-5.667 5.667-5.667v0z"></path>
<path d="M9.917 8.5c0 0.782-0.634 1.417-1.417 1.417s-1.417-0.634-1.417-1.417c0-0.782 0.634-1.417 1.417-1.417s1.417 0.634 1.417 1.417z"></path>
</symbol>
<symbol id="icon-vata" viewBox="0 0 17 17">
<path fill="none" stroke-linejoin="miter" stroke-linecap="butt" stroke-miterlimit="4" stroke-width="1.4167" d="M11.286 5.147l0.089 0.479 0.479 0.089c1.324 0.256 2.311 1.406 2.311 2.786s-0.986 2.53-2.293 2.783l-0.018 0.003-0.479 0.089-0.089 0.479c-0.256 1.324-1.406 2.311-2.786 2.311s-2.53-0.986-2.783-2.293l-0.003-0.018-0.089-0.479-0.479-0.089c-1.324-0.256-2.311-1.406-2.311-2.786s0.986-2.53 2.293-2.783l0.018-0.003 0.479-0.089 0.089-0.479c0.256-1.324 1.406-2.311 2.786-2.311s2.53 0.986 2.783 2.293l0.003 0.018z"></path>
</symbol>
<symbol id="icon-arrow" viewBox="0 0 17 17">
<path d="M5.578 3.992l1.502-1.502 6.011 6.011-1.502 1.502-6.011-6.011z"></path>
<path d="M7.080 14.511l-1.502-1.503 6.011-6.009 1.501 1.502-6.011 6.011z"></path>
</symbol>
<symbol id="icon-catalog" viewBox="0 0 17 17">
<path d="M3.188 3.188h2.125v2.125h-2.125v-2.125z"></path>
<path d="M3.188 7.438h2.125v2.125h-2.125v-2.125z"></path>
<path d="M3.188 11.688h2.125v2.125h-2.125v-2.125z"></path>
<path d="M7.438 3.188h2.125v2.125h-2.125v-2.125z"></path>
<path d="M7.438 7.438h2.125v2.125h-2.125v-2.125z"></path>
<path d="M7.438 11.688h2.125v2.125h-2.125v-2.125z"></path>
<path d="M11.688 3.188h2.125v2.125h-2.125v-2.125z"></path>
<path d="M11.688 7.438h2.125v2.125h-2.125v-2.125z"></path>
<path d="M11.688 11.688h2.125v2.125h-2.125v-2.125z"></path>
</symbol>
</defs>
</svg>
