<svg width="24" height="24" viewBox="0 0 24 24" fill="none" xmlns="http://www.w3.org/2000/svg">
<circle cx="12" cy="12" r="5" stroke="#FF6C02" stroke-width="2"/>
<mask id="path-2-inside-1" fill="white">
<path d="M22 12C22 10.0222 21.4135 8.08879 20.3147 6.4443C19.2159 4.79981 17.6541 3.51808 15.8268 2.7612C13.9996 2.00433 11.9889 1.80629 10.0491 2.19215C8.10929 2.578 6.32746 3.53041 4.92893 4.92893C3.53041 6.32746 2.578 8.10929 2.19215 10.0491C1.80629 11.9889 2.00433 13.9996 2.7612 15.8268C3.51808 17.6541 4.79981 19.2159 6.4443 20.3147C8.08879 21.4135 10.0222 22 12 22L12 20C10.4177 20 8.87103 19.5308 7.55544 18.6518C6.23984 17.7727 5.21446 16.5233 4.60896 15.0615C4.00346 13.5997 3.84504 11.9911 4.15372 10.4393C4.4624 8.88743 5.22433 7.46197 6.34315 6.34315C7.46197 5.22433 8.88743 4.4624 10.4393 4.15372C11.9911 3.84504 13.5997 4.00346 15.0615 4.60896C16.5233 5.21446 17.7727 6.23984 18.6518 7.55544C19.5308 8.87103 20 10.4177 20 12H22Z"/>
</mask>
<path d="M22 12C22 10.0222 21.4135 8.08879 20.3147 6.4443C19.2159 4.79981 17.6541 3.51808 15.8268 2.7612C13.9996 2.00433 11.9889 1.80629 10.0491 2.19215C8.10929 2.578 6.32746 3.53041 4.92893 4.92893C3.53041 6.32746 2.578 8.10929 2.19215 10.0491C1.80629 11.9889 2.00433 13.9996 2.7612 15.8268C3.51808 17.6541 4.79981 19.2159 6.4443 20.3147C8.08879 21.4135 10.0222 22 12 22L12 20C10.4177 20 8.87103 19.5308 7.55544 18.6518C6.23984 17.7727 5.21446 16.5233 4.60896 15.0615C4.00346 13.5997 3.84504 11.9911 4.15372 10.4393C4.4624 8.88743 5.22433 7.46197 6.34315 6.34315C7.46197 5.22433 8.88743 4.4624 10.4393 4.15372C11.9911 3.84504 13.5997 4.00346 15.0615 4.60896C16.5233 5.21446 17.7727 6.23984 18.6518 7.55544C19.5308 8.87103 20 10.4177 20 12H22Z" stroke="#FF6C02" stroke-width="4" mask="url(#path-2-inside-1)"/>
</svg>
